/* XPM */
static char *_d87183a3617423f976d381ba5259624[] = {
/* columns rows colors chars-per-pixel */
"64 64 22 1 ",
"  c #959500",
". c #9A9A00",
"X c #9F9F00",
"o c #A1A100",
"O c #A6A600",
"+ c #ABAB00",
"@ c #AEAE00",
"# c #B2B200",
"$ c #B7B700",
"% c #B9B900",
"& c #BFBF00",
"* c #C1C100",
"= c #C6C600",
"- c #CACA00",
"; c #CCCC00",
": c #D3D300",
"> c #D5D500",
", c #D8D800",
"< c #DDDD00",
"1 c #E1E100",
"2 c #E5E500",
"3 c #E6E600",
/* pixels */
"&-==-$#-#%%$%%#@@@%=$**-$::;*;$$%$**%;;:*%$=%*%$%-=--*-=#%-&=&&&",
"$==>-&%-*&%+###@=&$&=:=;&#&-**%%*&@$;=;:-=%&&@+$$*#=-=&%o*$$=&%%",
":;$$*,=@%%@-@oO*:,&+@;=&&&$=&*&@##$&,%=<%%:-=-#+=+=:=;*+*=$==$%&",
"-*=%%::=$$$@#=%%:--&&;>$%:&&&&*;=&*;:$*;-$#-==-;*&*-=;O#=&&-=#%=",
"=->&*>%->>::;=-*:$:>:><=+-=+#*&%*##%#&$%#%&&%-;-*,,=*%#$o%<=$***",
"$;;+**&>,;-##-;*>@&&=&$%+&<;&O%$%#%%$&=>*--=;-::$=&*-&;*X-$$$==#",
"#%:$+o+;;&==;=:*:-=%:=@$%#+*=$&;%&%&=-;;=*-**->:>$$=$**%@$*&=@%-",
":&*+#*$o%&::&==$$;==&-=%&$##$*%:%*@*=%>:&;=&%=$=*%##+*@#%@%$X.+:",
":;#@%=:=%==&+>**;;&=*&&**-&$&<;=%%&,=#%;*&-::-*-,=+$#&;%@=##@@%&",
"**=;;--:&->*&>-;:**#@;:;&*=;:,#$:=-,***-&==&:-$*-$%=@%;::;&==%=>",
"-;&=:$$#=*:;+;=%*=:$%:,:==&;-;%%=;*:*&$$&<-*==-;-#%=$$*;;-1;=$;=",
"*@**>&&=*%@=:;=*-@%:&$,:>,:-&*#*=%-:&=-+=;&-<&;,>-*$%$##%&--&&*%",
"*-%-&;-&+#+%*$%&=-&=$#;;>1:&$*&=*%=-=;;:**=&;1*;>:&--&&%@*%-;=-&",
"*-*&$%$O$$=-*%*-==*:*&@%;:&@&;:%+&*=<>*:%:-%%;1&-;;;-#$&&@:,-<>:",
";@*=*$@#$-:-,=#%$&**%-#$#&;=&&-#@;--;%+%=&&=;*@&&>;-##*%%*=>::;<",
">-*#-<*&%&;&&-==*&%$+--#%&*;&*##=+&&+%@%;;>:=$@*===>%%:*-*+**%:*",
":==->-$=*&*#$&,-%*&$*-=&&;&=*&-=>%X-=%**%,>*O&&$$#&>$**%=%@&=&=%",
"%;--=#$&:--&*@@*=*#=;=**&=;=-:**=&o&%*:=#&=;-%#%@#%>&&%-*&#$*&@$",
"-;=-*%-%=>=*=%=**$@-:-&&;:>%&,$;&@&-;&$%**::*+O&*:-,*##&*-*#%&+&",
",1;*-*--;-;&->-;-%%---*:-,:&@&%&;&*-&%#&:**%$%#;;**-;#%$&&*=&&*:",
"#o;#@>-=;=;:;-#-@%>>$**-*1=%*=*%#%;;%$*==@&Xo%+;<>%><;%+@#$-%=>>",
"=O$-O;-#:>*&*+:>$&>,#$:;**;::;&*=<-;1:*%->$&**=;;=*;;:+$-#%**-*%",
"=#$#&*X*-@-%#$-,:$*&,=@=-:-&-:**>-%<:>$$,-#-,::;*---$;--&+$%&O#+",
"-*#$&%@*-#=#%X#$#+*&*==$&:%@=%*<*@=-&;<>;$%&;&@&:&=>&$$*;=@%%+++",
"*%&*;$=*,;=%#@@@@%&%=#-*=,-**=>-=-*%>;;1*&$$&%@$&$&**$+#*-&@%*-*",
"$@&;$*@#=&=-%=&:-$@&%*&*&>;=-%-*&=-%:*=##***&*%$#=*%=o$=%&%%%=*#",
"$&;-#**$$-*;:=$:<%&%%--**:==&%-:%--*&&**=**%=**@%*&*&@-*$@##$:&O",
"*$&-=*:*#:-&--&-,,;%#%;***=##-&*&%$%****%=%$=*+#&*=*$#;=&@*=@=:%",
"%$&--==*&=$#$&:;=:&@;:@$=,-=*@&%+$+o@**--=&%*$X$$*&&%*&%%&&%$%%=",
"-=*%>-+#*@$=%#&>-**@=*X@$*;$*&&&+-%&%&*-*+*>$#$$$*->=@#%%#*$*-*=",
";;**&,#oO&&;*%-=:-&&&&$--$@*-->%%;<1-&$%$#*$+=#&%->=*$#%%;:*-;%;",
"#*$::=;*&$=--&&$=<;*@&$>,&@%&%<<,>=-:=;&@#*%*##-*%-$&*+@O+=-#-&%",
"@-%;<*=>>-&=&=%&*2;$O%*:-$@#$&==o$&&;<&&$$%&&$@$;%&--#+O$@#=&;;=",
"#&%&>-;-*>>-%-&*--*@ $%=;%%*;,:=O$@%>::$=-=;#%;**%$&&%#&*&=%&=,=",
"%%#$:>--*,-:>*==>$$-@#**$&;==@;;&#$$$=<*o-,,&*:>*#%*$%#$;;%*#*2;",
";+#+%$&&*=;&;%>,:-$%-%$%#-****=-*;-*&;=*=>;<>==,<%&#$*;@-**-=-%;",
"=$%=%$%-;>=%-:*=>=*%--&&*,=$=**>:;%*:,$+<--&>%*;;;&:o%,&%%*=-=;%",
"%@-=;-&*:==:=;=**-->$@:;*$@$+==:*;$%:-&$=&>*==>-*;:=@-=##-*;>*=*",
"#&-:%**O&;>$$*;=*>+&Xo=,;#@%-=:=*2-*$#$-:-*%**:>=-=*-;&@$$>-==&*",
"*=:*#$;%$>*&=*=%;&O&%#*->$O**%&=;==>%#++$-%$#%&:,;&*&&:=&-%%&&**",
"&;$$.--=*-&;=:**<*$;&&$;>:$+$*+#$**=-#%@&%%=%=%%&::;-*$:>*$$O&=$",
"$&=#&#=&%%%$%&:*&%@&-%*;<,*%*$#%=&$@#O&&=*-;:&&%O%*>-&--,>@#%*%&",
"%#-&$+:%#O$#$*;=$=*>=$%=>>=$=%&=%=%=@%@%:;&&-&#&**;>::>-%=-%<&&&",
"*=O#&%#+*=**%-;*=*=-**-#&$;;=*=%==+%$&*>;:;>-*O%%;>&=-=*;:$*=@#*",
"*$O=;*%%==-:%$%$:&@$*%$$*@::$&-*;$@-;&*--:,;,=&*&=-&.+@-*&@#@=*&",
"-*=;=$*;>;*=-+#-**&;&$-*=%-%%&=:-&&;;&##@&:&:>;=#%#+&&=;;=*-%&==",
"&--*%&*=;:$&*=*%@#-;%&=*;&@@#O;:%-*->$$#O%&$-=*&#@#@%&=-;-;*&&-&",
"#$$+*=&>>-*&$*$%%*;<:@*2;$##+@===>=;-;>&++%$&%-*-==*=*&;=%%&-=$+",
"#&***%=;<=$#-*=>$@-->-=;%-@%;;**--;>,-*%;#%-$&#=::&&-%$&%;;%&%%@",
"$%&--&>&==%#>>=&%+*@OO@&%==:;=&&&*:&%$-&-%@,-=&#*--*#$-##,&*-$##",
"%$=%&&<>:-@*->>%*@%=@#%%=*;=$%&*@%*-&&:-->%&&&&%*-->>*&*-*%*$$$%",
"$*<%*:<2*#**;-&==*&-*&;=-=&#$+#%&#-:%=-2;*:;&$&*::>,2%$;&%=%@%=&",
"&###,>:-@&*$=&&&*>-&$&>;$##&$+%&&%===@&-*&%*&>>&%&-=&$-$@=%&*&##",
"&@+&-<-&$o$$&:$=--&=%>&*-=;=#@@-::;=*@*;;,%-&;:.$-$=#&o@*;$#%&-*",
"&**-+@o$$&$O;>;:*&-:-%*:=:,<;*>1:-;;;$*;;,**+%%#&=$=#%&$;*=#$*=&",
"*&=:*$@$-*$$;-;;+#&%#=,:-$:>;-,=:,>;;-#=,;>*@*=:%,-o#$&#%*-$=%=$",
"%;&@#%$&;;-;-$;:@=$%=;;%=-;&#**$%;;&&&%==-:**-;=-*%##@=%*&&#=##@",
"$$@$%*;*%-===##$&**o-*&-;;@&%&-;=$&=X;;*%$&%;*=%o.*%@&%%$$%#@=#*",
"++%$%;;&%=--%**#@ *:;&-*$@$*%*&-#o=&#;%$#&*=%:,*#==@#%&--&%-@&;-",
"=$%&$=-:%&*:=&&*$+&;&=%&>#%;-*%o%$#&*%*$O@&;+=>==%#*=%*&&%=%%$*;",
",:=oOoo*@-;**&$=-&;<=-O=<:*#:=%#*%$%-&*$+#,-@:-=#$:,;*=&@-=&:*=-",
"=,$X%@$&=-&=--%&&$=;;*%&O@**=,#O%$=,>>=#@$=::>&%>--$>;*;==#&,-&*",
"-*&$-%:=*:=&%#%*+$=;:&$#*&*&=:-@-==>-*O+*%%=&%&$;:#:>;*,:&=;*&=:",
"-O$;=**=+:=*&$%=%--=*==*=:;%-,%#$$-&=$%::#-=%*&*=12-%&&-$*<==*=="
};
