/* XPM */
static char *edfecc7cd37d4ceca2863dc93d2a9ace[] = {
/* columns rows colors chars-per-pixel */
"64 64 46 1 ",
"  c #FF0100",
". c #FF0B00",
"X c #FF1400",
"o c #FF1C00",
"O c #FF2400",
"+ c #FF2C00",
"@ c #FF3400",
"# c #FF3C00",
"$ c #FF4300",
"% c #FF4C00",
"& c #FF5400",
"* c #FF5C00",
"= c #FF6300",
"- c #FF6B00",
"; c #FF6B0B",
": c #FF7300",
"> c #FF7B00",
", c #FF6B16",
"< c #FF7B1A",
"1 c #FF8300",
"2 c #FF8B00",
"3 c #FF8C08",
"4 c #FF9400",
"5 c #FF9B00",
"6 c #FF9909",
"7 c #FF8F13",
"8 c #FF871E",
"9 c #FF9A12",
"0 c #FF9718",
"q c #FFA300",
"w c #FFAB01",
"e c #FFA409",
"r c #FFB300",
"t c #FFBC00",
"y c #FFA214",
"u c #FFAC16",
"i c #FFB61C",
"p c #FF8938",
"a c #FFA523",
"s c #FFB229",
"d c #FFA834",
"f c #FFC300",
"g c #FFCC00",
"h c #FFC20B",
"j c #FFD600",
"k c #FFD800",
/* pixels */
"*=>125:*&=%$$$$#Oo&--=:1>2q5q2$#%&&*%@$%&=--==:=&%&:24>===4qq4-*",
"-=:2q5**=*$$$$$@+%>-*==:&-5qqw:&&##+Oo+##*>=$&-*$#$%&>1-->5fw5>-",
"=$%:qq==*$#$$&%%*4q-**-&#$1qqq2>:&#oo$$##*:#o@:*@$&#o%&+$:4rry,*",
"%$$->2:*%$$&**--#&:::45>#O&5q41>:-=%&22%%==$O#>4::=OOoOOX&1>2>$$",
"$*-=%%**&$#%**1- o#&>ww4$o+1441>=*&*:45%+%*:&$$1r2%+O+#OO=211-%$",
"&>1&$$#&-%#$&%&=%$$#-555-+&=%*14>&$$-q5oOO*5>@+o4w%+o+=&&>2121=$",
">:=&$$@*1=%**@@%2>&*>1**-*=*$%>rr=##=wr%X+:q>@+ >f5&+$>-*&*:111>",
"5-=*$#$>3:>>#OO$-%$:1-$$&*&&%=15r-##=qrq==2q:&@$2trq:-44=#$=*%>w",
"41-::->1-&&%+oO1= o=1:&%=%#$=>>:>:$#&2tt11451>>>15q5:=>w4=:>$#*4",
"%:1:::=%$####@*w5$&:11>>>*%1>&&*&&%$##>1=:4:-24:-1q4=*:42454$$%%",
"#=>#o#%#$%$$%:>>wr>=-::->>>q:#$&@O$$#$#OX%:=*$$&==151:>-*4t1#$##",
"$--@o@%&***&%--*:w:**=%$*112-%&&+X%=$$$+O+*=&+o&*=*>qq4--5r:$#$$",
"*=>:##%::*=%+#*==2:*=*$$->--*%>>&&:-*--#+#=->*%5q=*-q41>:>1:=&$%",
"--21%$#2w:%+OO&===-=->1:>*%%$#:4>12==--&$&=**%$1f4-11$$:=%&=--*=",
">>:#O%wgj:@#+$*-:=*==4w:*$$%%$-441-=*#O$*==$###%:>1w:@#*&#%*=:-=",
"&=&@ *jgw-##=>>22:**=54&*$&=*=>451===#o#*&&%$$%==*:rw+$->=*=*=$@",
"#*=&&>rwq4::111>:=%%*15>-3eq42>----:=%%*&#%>2422:-*-w5:>>2-==&+o",
"*=*-*%2ree2>>1:=*%#$&>w51ya455:**%&*$$%&%$%142:12>%+2t2&$*=*-2=#",
"&--*+X+5gr>--12-==&&:52=-:;=>1>-&Oo+$#@#$&-1>%#&%%%*44-$$&==-4-@",
"+*=*@O@#:41=*:q5::-:24>==:=**%*-=@O#$OO+#*>>>*$#oO@%2:%$%--===#o",
"%==*%@+o ->-$#>q1=*&*==>24:*+oO#=-&*%OO@&=*:44:%+OOX--$$&===*%@@",
"=--*%#@O@**$Oo#2-$%$+O#24:-&+O+o$-=*%@+%4:=>5w2&+Oo&2:%&*=*-:&$%",
"*****&%%&&$@Oo%*$$$$Oo+1:**&@+.X#:-%$$#:4:=:5w>*#OO*4>===*->>*$&",
"$@O+*==:=##+o@-&#%&&#+=4:=-6512**>>%#=:>:-=-55=&&@o+:1::>:>1:$$$",
"$@OO@&*:>%$#O&*%&===*&>2-:22342-*=>1251===->>:*$%$@&1:%%*:1>=$$$",
"$#@##%-44>=:u1#%15:==**%$=>*&%#&=:>25q2==1r5*%$$$**-1:#$#*2-$%*=",
"&$&&&-4>@$:7iq--qq2:==&$#=1=&$@=41*%-1524rgw>*$%==&$=>=%%>5-@#:1",
":=&%$3e@XX&=%15542>>:-%$$>52wq12>*$#&::->qwr5=&-*$$$%:>=*4r:o+-2",
"1>:&$14ooO&%#*21122>-=%#&-25qrf5$#&&****=2q5:$%1=#$$&===*>w<.O*:",
">1:&*4q=+$%&&>41144:**>>=*=-*:r4%&2>*$+#-5w1%$%>1%$$%=-==-5s0=*=",
">>&$%1r4%#o#:3>>2q5-=-12-&$$*-1%@*2>*@oo*4q-*&=151%$&---*-4792--",
"41&$$>q2%+o+--*=>2q2:-$#%$#%**$Oo@&==%+o+:-%*=>4r5&$*==-=:>*=>12",
"q4=%%=2>##+$%+#*=:qq5>OO#$&=&$#++@%===$@&*OO$-24w1@+@*=>>*$%=>14",
"qq=$$$*>%#$$@oX%*=4q5=@@*::%+#$$$$*==&$$>:+O=2>:2>+Xo=>22&##-44q",
"1>$#$$&>=&&*%+*2125q:XO@&1:Xo$*=&&==&#$#:1-=21%&>1-$&:--1>&*1211",
"&Oo$=&*:-*=%#+4r5qhh>.oO$::&$*&%%$==$###*:>1>=#$==>q1>==:>>>1===",
"=$+>q=:2-**@oX%112gh3=%&-123dp@#$$=:&&&&%$*:=*&=&#&42>21--&$-==-",
"54&-rq31&*-*Oo%114f5=>2==22208#+#=>-**>>&#*::-12=#+$>22=%&+X&1:1",
"w2##:3>&$$-3-*>22wf:#*:$@&=&%$@o+*:&#$-1==--::%&-%o+=:&#$&@o<512",
"e1%$$#*&$%=:=-1414r>$&=+o@%$$##@@%*%##-:=-*O$%oo==@$=%#$&&+O;=&1",
"111>%$%=&*-:==:11>2:%*=@O#&$@#&&##&&$$-:**#oO###:-*=&$$%>-O++oX$",
"--:2*&*&#$*-:-%$-1%o+&=&+O>:XO&-&%%$#&=1:&#@@#*24>==&$#-1-&%+OO%",
"+#%>1*&#oo%*==+o+%@O+*:*O >1oX>q-*&OO&>q4&$$$#*qr1=%%%%-=O@#oo#$",
"O+%--*$@+@&%&*@OOO+@%>1-$%1-%*q6++&$#-4t1$$%$#*qq:$$%&#++oo@+O%#",
"#&>*#%$$%*%##@@$@oo$&>2::45-=>41$+2q>>2r2%$&&&=24:%$&&+O@O+#+o=*",
"&*1*@$&*===*$OX&=##*=41&1qq111:-=>tf425g5:%#&-*=22:&**$###::o+=-",
"$#-1::==:2q4:#@&-11>>1&#%1>-::**=12-*>2r5>%X$*$&-:>-*%$%$*>=#@%&",
"%$:52-$$&>q4-===*::>>:*+o%=*&$$*:>&@#&>>1:@O$%$&*=>:*$#%*>*##Oo$",
"-=22>&#+.O2-+$%&==*=-=*@o$&&&$%-***$$->--*Oo$**-=*-:%$%=*1:%#OO*",
"==11>-&$#&:#oO##&=*==%@+#%$$&%=:o+&&%=:=*-%@*:>-=*==#+%=%*2>&@#=",
">*=:>>=%-q>#+@#$*=&=:#oO&*$$%%%#O+#$@+$%%:14ww2*====+o#&#%>1=%*5",
"2#$=1:%#&w3-=*&*=*#*-$+#*=&**%##OO+#OO@#$%*>5t5=**-&Oo%-**-:*$*t",
"=$#-1>*%=1111:===%#%:%#&==->:%$$+O#&$#%&$$#$*11*$%*$@@&--==&$#$-",
"=-15521:=*:==>:25:#%2-%**-12=$$==$&==*--#+#%%&:&$#OO@$&&$*=&#$%*",
"=-25>>2-##%$#=>2q:@+$:==*->-&##-5545>*--+o@$$#=>&@Oo%==@o@=---&&",
"%#%:=*1:##&%$*&$#OOoX--*=>:=*%$>fgwq1=->&+@@@%14:%@$=->&O#>21-$$",
"&%&::=11*=2=&:%#OOOO%4>-:1:-:>>5q>**:>>11:=:5wr2-=**@+*==:2-**&%",
"2-&&%%=>14:#$-=%@oO%-211-=$*>>:1=#%*-21>112rrwrq:&=&Oo#==--%$&&*",
"42#+oo$*>5-++=1-$@$=-=*%@+Oo#@+*&##&-1:&->154>5jf2:=$#&=%#%%$$O@",
"q5%#OO##*q5>2q2:**->>=$+ooo++Oo&:***==%#%-144:=qr52==-*&&$%*:-+$",
"->%$#$%%-rrtkf554>121>=$@&=$$#@-4>*%%*%$&:22-#&&@@=:--%#%&*>44*#",
"X#$$$$%=:1>2q41>-=-1111:-45::=*--%##$&=-:15>+o#%+X=21>@+%==11>#o",
"+$%&&%**$$%&**-%#%*:42>-=>421-%%*&$$%--:>:>>#O#*$$:11=OO#=24>>%+",
"%%->111*$%$$%%*&+@&:52>==:544>##&-&&=:-===->*%*=*=>11:$+%=5544:&"
};
