/* XPM */
static char *_8bad4463cce447e85a1bf7359220835[] = {
/* columns rows colors chars-per-pixel */
"64 64 130 2 ",
"   c #F9060F",
".  c #FA1507",
"X  c #FA1A07",
"o  c #FA1308",
"O  c #FA1908",
"+  c #FA0613",
"@  c #FA0418",
"#  c #F92302",
"$  c #F93700",
"%  c #F93B00",
"&  c #FA0324",
"*  c #FA022B",
"=  c #FA0230",
"-  c #F95600",
";  c #F95800",
":  c #F96D00",
">  c #F97400",
",  c #FA7800",
"<  c #FA0046",
"1  c #F9004B",
"2  c #F90053",
"3  c #F90065",
"4  c #F9006A",
"5  c #0AF90E",
"6  c #14F907",
"7  c #13F908",
"8  c #0AF910",
"9  c #04F91E",
"0  c #2EF901",
"q  c #32F901",
"w  c #03F922",
"e  c #00F933",
"r  c #00F939",
"t  c #46F900",
"y  c #49F900",
"u  c #5EFA00",
"i  c #63F900",
"p  c #76FA00",
"a  c #79FA00",
"s  c #00F947",
"d  c #00F94D",
"f  c #00FA5D",
"g  c #00FA63",
"h  c #00F97A",
"j  c #FA9500",
"k  c #FA9800",
"l  c #F9AC00",
"z  c #F9B000",
"x  c #F9BD00",
"c  c #87FA00",
"v  c #8AFA00",
"b  c #9EFA00",
"n  c #A1FA00",
"m  c #B7F900",
"M  c #BCF900",
"N  c #F9C300",
"B  c #F7DC00",
"V  c #F8DB00",
"C  c #CFFA00",
"Z  c #D3FA00",
"A  c #EFED00",
"S  c #F0EB00",
"D  c #E7F400",
"F  c #E8F300",
"G  c #070CF9",
"H  c #0A0BF9",
"J  c #1E06F9",
"K  c #1B09F9",
"L  c #041FF9",
"P  c #2105F9",
"I  c #2F01F9",
"U  c #3301F9",
"Y  c #0422F9",
"T  c #002EF9",
"R  c #0032F9",
"E  c #4500F9",
"W  c #4900F9",
"Q  c #5700F9",
"!  c #5A00F9",
"~  c #6D00F9",
"^  c #7100F9",
"/  c #004DF9",
"(  c #0052F9",
")  c #006CF9",
"_  c #0072F9",
"`  c #007CFA",
"'  c #F90084",
"]  c #F90089",
"[  c #F90096",
"{  c #F9009B",
"}  c #FA00B5",
"|  c #F900BA",
" . c #8500FA",
".. c #8900FA",
"X. c #9B00F9",
"o. c #A000F9",
"O. c #B700F9",
"+. c #BA00F9",
"@. c #FA00CF",
"#. c #FA00D2",
"$. c #F800DF",
"%. c #CD00F9",
"&. c #DD00F7",
"*. c #D100F9",
"=. c #DD00F8",
"-. c #ED00EE",
";. c #F700E2",
":. c #F800E3",
">. c #E100F6",
",. c #EC00F0",
"<. c #00F98C",
"1. c #00FA91",
"2. c #00F99E",
"3. c #00FAA2",
"4. c #00F9B7",
"5. c #00F9BC",
"6. c #0081FA",
"7. c #0091F9",
"8. c #00A5F9",
"9. c #00ABF9",
"0. c #00BEF9",
"q. c #00F9C0",
"w. c #00F9CE",
"e. c #00F9D1",
"r. c #00F5DF",
"t. c #00C1F9",
"y. c #00D3F9",
"u. c #00F4E1",
"i. c #00E7F3",
"p. c #00EAF2",
/* pixels */
"X X X X X X X O O O O O O O O o X . . X . . . . . X . X . . . o o o o o o o o o o o o o o O O O o O O o O o O . . . O O O O O X ",
"# # # # # # # # X # # # # # # # # # # # # # # # # # # # # # # # # # # # # # # # # # # # # # # # # # # # # # # # # # # # # # # # ",
"% % % % $ $ % % % % % % $ % % % $ $ $ $ % $ $ $ $ $ $ $ $ $ $ $ $ $ $ $ $ $ $ $ % % % % % % % % % % % % % % % % % % % $ % % % % ",
"- - - - - - - - - - ; - - - - - ; ; ; ; ; ; ; ; ; ; ; ; ; ; ; ; ; ; ; ; ; - ; ; - - - - ; - ; ; ; ; ; ; - ; ; - - - - - ; ; - - ",
": : : : : : : : : : : : : : : : : : : : : : : : : : : : : : : : : : : : : : : : : : : : : : > : : > : > : > : : : : : : : : : : ",
"> > , , , , , > > , : : , > > : : : , , , , , > , , , : , , , , , : , : , , , , , : , , , , , , , , , , , , , , , , , , , , , , ",
"k k k k k k k k j j j j k k k k j j j j k k k k j j j j k j j j j j j j j j j j j j j j k k k k k k k k k k k k j j j j j j j j ",
"l l l l l l l l l l l l l l l l l l l l l l l l l l l l l l l l l l l l l l l l l l l l l l l l l l l l l l l z l l l l l z l l ",
"N N N N N x N x x x x x x x x x N x x x x x x x x x x x x x x x x x x x N N x N x x N N N N N N N N x N N x N N N N x N N N N N ",
"V V V V V V V V V V V V V V B B B B V B V V B B V V V B V V V V V V V V B B B V B B B B B B B B B V V V B V B V V V V V V V B V ",
"S S S S S S A A S S S S A A A A A A A A S A S A A S S S S S A A A A A A A A A A A A A A A A A S S S S S A S B A S S S S S S S S ",
"F F D D D D D D F F D D F F D F F D D D F D D D D D D F D F F D D D D D D F D D D F F F F F F F F D D D D D D A F D F F F F F F ",
"Z Z C C C C C C C Z C Z Z Z C Z Z Z Z C Z Z C C Z Z Z Z C Z Z Z Z Z C Z Z Z Z Z Z Z Z Z Z Z Z Z Z Z Z Z C C C C C C Z Z Z C C Z ",
"M M M M m C M M M M M M M M M M M M C M M M M C M M M M C M M M M M C M M M M M m C m m m C m m M M M m m m m M M M m M M M M M ",
"n n n n n n n n b b n n n n n n n b n n n n n n n n b b n n b n b n b n b b b b b b b b b b b b n n b b b b b n n b n n n n n n ",
"v v v v v v c v v c v c c c c c c v v c c c c v c c c c c c c c c v c v c v v v c v c v v v v v v v c c v v v v v v v v v v v v ",
"a a a a a a a a a a a p a a a a a a a a a a a a p a a p p a p a p a p p a a a a a a a a p a p a p p p p p p p p p p p p a p a p ",
"i i i i u u u u u y u u u i u u i i u i i i i i i i i i i i i i i i i i i i i i i i i i i i i i i i i i i i u u i i i i i i i u ",
"t t t y y q t t t t t t t t t t y t t y y t t t y y y t t y t t t t t t t t y t y y y y y y y y y t t t t t y t t t y y t t t y ",
"0 0 0 0 0 0 0 0 0 0 0 0 0 0 0 0 0 0 0 0 0 0 0 0 0 0 q 0 q 0 q q q q 0 q q q q q q q q q q q q q q q q q q q q 0 0 q q q q q q q ",
"6 6 6 6 7 7 7 7 7 7 7 7 7 7 7 6 7 7 7 7 7 7 7 7 6 6 6 7 6 7 7 7 6 6 6 6 6 6 6 6 6 6 6 6 6 6 6 6 6 6 6 6 6 6 6 6 6 7 6 6 6 6 6 6 ",
"5 5 5 5 5 5 8 8 5 5 5 5 5 5 5 5 7 5 5 5 5 5 5 7 5 5 8 5 5 5 5 8 5 5 5 5 5 5 5 5 7 5 5 5 5 5 5 5 5 5 5 5 5 5 8 5 8 8 8 5 8 5 5 8 ",
"9 9 9 9 9 9 9 9 9 9 9 9 9 9 9 9 9 9 w 9 9 9 9 9 9 w w w w w w w w 9 w w 9 9 w 9 w w w w w w w w w w w w w w 9 w w w 9 w 9 9 w 9 ",
"e e e e e e e e w e e e e e e e e e e e e e e e e e e e e e e e e e e e e e e e e e e r e r r r r r r e r r r r r r r r r r r r ",
"d d d d d d d d d d d d d d d d d s d d d d d d d d d d d d d d d d d d d d d d d d d d d d d d d d d d d d d d d d s d s d s d ",
"g f g f g f f f f g f f f f f f f f f f f f f f f f f f g g g g g g g g g g g g g g g g g g g f g g g g g g g g g g f f g f g f ",
"h h h h h h h h h h h h h h h h h h h h h h h h h h h h h h h h h h h h h h <.h h h h h <.h h h h h h h h h h h h h h h h h h h ",
"1.1.<.<.1.1.<.<.1.<.1.1.1.1.1.1.1.<.<.<.<.1.<.1.1.1.1.1.1.<.1.<.1.<.<.<.<.<.<.1.<.1.<.<.<.<.<.<.<.1.<.1.1.1.<.1.<.<.<.<.<.1.1.1.",
"3.3.3.3.3.3.3.3.3.2.2.3.3.2.2.2.3.3.2.3.3.3.3.3.3.3.3.3.3.3.3.2.2.2.2.2.2.2.2.2.2.2.2.2.3.3.3.3.3.3.3.3.3.3.3.3.3.3.3.3.2.3.3.3.",
"q.q.q.q.q.q.4.q.q.q.q.q.q.q.q.q.q.q.q.4.4.q.q.4.4.q.4.5.5.4.5.4.4.4.4.4.4.4.4.4.4.4.5.4.5.5.5.5.q.q.q.q.5.5.q.q.5.q.5.5.5.5.5.5.",
"e.w.w.w.w.w.w.w.w.w.w.w.w.w.w.w.w.w.w.w.w.w.e.w.w.w.w.w.w.w.e.w.e.w.w.w.e.w.w.e.e.w.e.e.e.e.e.e.e.e.e.e.w.w.w.w.w.w.w.w.w.w.w.e.",
"u.u.u.u.u.u.u.u.u.u.u.u.u.u.u.u.u.u.u.u.u.u.u.u.u.u.u.u.u.u.u.u.u.u.u.u.u.u.u.u.r.r.r.r.r.r.r.r.u.r.u.u.u.u.r.r.r.u.u.r.r.r.u.u.",
"p.p.p.p.p.p.p.p.p.p.p.p.p.i.p.p.p.p.p.p.p.p.p.p.p.p.p.p.p.p.p.p.p.p.p.p.p.p.p.p.p.p.p.p.p.i.p.p.p.i.i.i.i.i.i.i.i.i.p.u.i.p.i.p.",
"y.y.y.y.y.y.y.y.y.y.y.y.y.y.y.y.y.y.y.y.y.y.y.y.y.y.y.y.y.y.y.y.y.y.y.y.y.y.y.y.y.y.y.y.y.y.y.y.y.y.y.y.y.y.y.y.y.y.y.y.y.y.y.y.",
"y.t.t.t.t.t.t.t.t.0.0.t.0.0.0.t.t.t.t.t.t.t.t.t.y.t.t.t.t.t.t.t.t.t.t.t.t.t.t.t.0.0.0.t.0.0.0.0.0.0.0.0.0.0.t.t.0.t.t.t.t.t.0.0.",
"9.9.9.9.9.9.9.9.9.9.9.9.8.8.8.8.8.8.8.9.9.9.8.9.9.8.8.8.9.9.8.9.9.8.8.8.8.8.8.9.8.8.8.8.8.9.9.8.9.8.9.8.9.9.9.9.9.9.9.9.9.9.9.9.",
"7.7.7.7.7.7.7.7.7.7.7.7.7.7.7.7.7.7.7.7.7.7.7.7.7.7.7.7.7.7.7.7.7.7.7.7.7.7.7.7.7.7.7.7.7.7.7.7.7.7.7.7.7.7.7.7.7.7.7.7.7.7.7.7.",
"` ` ` 6.` ` ` 6.` ` ` ` 6.` 6.6.6.6.6.6.6.6.` 6.6.6.6.` 6.6.` 6.6.6.6.6.` 6.6.6.6.` ` ` ` ` ` ` ` ` ` ` ` ` ` ` ` _ ` _ _ ` ` 6.",
") ) ) _ ) _ _ _ _ _ ) ) ) ) ) ) ) ) ) ) ) ) ) ) ) ) ) ) ) ) ) ) ) ) ) ) ) ) ) ) ) ) ) ) ) _ ) ) ) _ ) ) ) ) _ ) ) ) ) ) ) ) ) ) ",
"/ / / / / / / / / / / / / / / / / / / / / / / ( / / / / ( / ( ( / / / ( / ( / / / ( / ( ( ( ( ( ( ( ( ( ( ( ( ( ( ( ( ( / / / / ",
"R R R R R R R R R R R R R R R T R R R R R R R R R R R R R R R R R R R R R R R R R R R R R T T T T T R R T T T R T T R R R R R R ",
"Y Y Y Y Y Y Y L Y Y L L L Y Y L Y Y Y Y Y Y Y Y Y Y Y Y Y T Y Y Y Y Y Y Y Y Y Y Y Y Y Y Y Y Y L L L L Y Y Y L Y Y L Y Y Y Y Y Y ",
"H G G H H H H H H H H H H H H H H H H H H H H H H H H H H H H H H H H H G G G G G G H H G G G G G G G G G G G G G G G G G G G G ",
"J P P J J P P P P P P J I P P P P P P P P J J K K J K K J K J K K K K J K K K K J J J J K K K K J J J J P J J K P P P J J J J J ",
"U U U U U U U U U U U U U U U U U U U U U U U U U U U U I U I U U U U U U U U I U I I I I U I I I I I I I I I I I I U I U U U U ",
"W W E W W W W W W W Q W W W W W W W W W W W W W W E W W W W E E W W W W W W W W W E E W E E E E E E E E E E E E E E E E E E E E ",
"! ! ! ! ! ! ! ! ! ! ! ! ! ! ! ! ! ! ! ! ! ! ! ! Q Q ! Q ! ! Q Q ! ! ! ! Q ! Q ! Q Q Q Q Q Q Q Q Q Q Q Q ! ! ! ! ! ! ! ! ! Q ! ! ",
"~ ~ ~ ~ ~ ~ ~ ^ ^ ^ ~ ~ ^ ^ ~ ^ ^ ^ ^ ~ ~ ~ ~ ~ ~ ~ ~ ~ ~ ~ ~ ~ ~ ~ ~ ^ ~ ~ ~ ~ ~ ~ ^ ~ ~ ~ ~ ~ ~ ~ ~ ~ ~ ~ ^ ^ ^ ~ ^ ~ ~ ~ ~ ~ ",
"........ ....... . . . . . . . . . . . . .^  .^ .. . . . . . . . . . . . ... ....... ....... . . . . . ................... .....",
"X.X.X.X.X.X.X.X.X.X.X.X.X.X.X.X.X.o.X.X.o.o.X.o.o.X.X.X.X.X.X.X.X.X.X.X.X.X.X.X.X.X.X.X.X.X.X.X.X.X.o.X.o.X.o.o.o.o.o.X.o.X.o.o.",
"+.O.+.+.O.O.O.O.O.+.+.O.O.O.O.O.+.+.+.+.+.+.+.+.+.O.O.O.O.+.+.+.+.+.+.+.+.+.+.+.+.+.+.+.+.+.+.+.O.O.O.O.O.O.+.+.+.+.+.+.+.+.O.+.",
"*.*.*.*.*.*.*.*.%.%.*.%.%.%.%.%.%.%.%.%.%.%.%.%.%.%.%.%.%.%.%.%.%.%.%.%.%.%.*.*.*.%.%.%.%.%.%.%.%.%.%.%.%.%.%.%.%.*.%.*.*.*.*.*.",
">.>.>.>.>.>.>.>.>.>.>.>.>.>.>.>.=.=.&.*.&.&.&.>.&.&.&.&.&.&.*.&.=.&.&.&.>.=.&.=.=.=.=.&.>.>.>.>.&.>.>.>.>.>.=.&.=.>.&.&.>.>.>.>.",
"-.,.-.-.-.-.-.,.,.-.,.,.-.-.-.-.-.-.,.,.-.-.-.-.-.-.-.-.,.,.-.-.,.,.,.,.-.-.,.-.,.-.,.-.,.-.,.,.-.-.-.,.,.,.,.,.,.,.,.,.-.-.-.-.",
":.;.;.;.$.;.;.;.:.:.:.:.:.:.$.;.:.:.;.;.;.$.:.:.$.;.;.;.;.;.;.;.;.;.;.;.$.;.;.$.$.;.;.;.;.;.:.:.;.:.:.:.:.:.:.:.:.:.:.;.;.;.;.;.",
"#.#.#.#.@.@.#.#.#.#.#.#.#.#.#.#.#.#.#.#.@.@.@.@.@.@.@.@.@.@.@.@.@.@.@.@.@.@.@.@.@.@.@.#.#.#.#.#.@.@.#.#.#.#.#.#.#.#.#.#.@.#.#.#.",
"} } } } } } } } } } | | } } | } } } } } } } } } } } } } } } } } } } } } } } } } } } } } } } | | } } } } } | | | | | @.} | | | } ",
"{ [ { { { { { { { { { { { [ [ { [ { [ [ [ [ [ { ] [ [ [ ] [ [ [ [ [ [ [ [ [ [ [ [ [ [ [ { { { { { { { { { { { { { { { { { { { { ",
"] ] ] ] ] ] ] ] ] ] ] ] ] ] ] ] ] ] ] ] ] ] ] [ ] ] ] ] ] ] ] ] ' ] ' ] ] ] ] ] ] ] ] ' ' ' ' 4 ' 4 ' ' ' ' ' ' ] ] ' 4 4 ' ] ] ",
"3 3 4 3 3 3 3 3 3 3 3 3 4 3 3 3 4 4 4 4 4 4 4 4 4 4 4 4 4 4 4 3 3 3 3 3 3 3 3 3 3 3 3 3 3 3 3 3 4 4 3 4 3 3 3 3 3 3 3 3 4 3 3 3 ",
"2 2 2 2 2 2 2 2 2 2 2 2 2 2 2 2 2 2 2 2 2 2 2 2 2 2 2 2 2 2 2 2 2 1 2 2 2 2 1 2 2 2 1 2 2 2 1 2 2 2 2 1 2 1 1 1 1 1 1 2 2 2 2 2 ",
"< < < < < < 1 1 1 1 1 1 1 1 1 1 1 1 < 1 < < 1 1 1 1 < 2 1 < < < < < < < < < < < 1 1 < 1 < 1 < 2 2 1 1 1 1 1 1 < 1 1 < 1 1 1 < < ",
"& * & & * * * * * & * & * * * & * & & & & & & & & & & & & & & & & & & & & & & & & * * * * * * = * * * * * * * * * * * * * * & * ",
"+     +   +     +           + +     +   + +         @ + @ + + + + + + + @ @ + @ @ + + @ + @ @ @ @ @ @ @ @ @ @ +                 "
};
