/* XPM */
static char *_1ad8332c0d94338d0448ba0a47db85e[] = {
/* columns rows colors chars-per-pixel */
"64 64 18 1 ",
"  c #706E67",
". c #726F69",
"X c #76746E",
"o c #79766F",
"O c #777570",
"+ c #797771",
"@ c #7D7B75",
"# c #7F7D78",
"$ c #807E77",
"% c #817F79",
"& c #84827D",
"* c #878581",
"= c #898682",
"- c #8B8985",
"; c #8E8C89",
": c #908F8B",
"> c #92918E",
", c #949391",
/* pixels */
"X@@#&%#@##&##&#@@&@@%@@@%%&&#@#+@%$&&&@$%#%###@+@$@@@$@%@@@@%%&%",
"@*%&&&&&=&&*&=&&**&&&&&&&&==*&*+&=&&&&&&%*=*&&&&&&&$&&&&&&&&&=;*",
"@&@*&&&&&&&&$&&$&#*&&&&$%&&*&&*@@&&&&&&&&&&&*&%&&@$#&%%&&&**&&*&",
"+##%&$@#$&&&&&&&#&&&&&%$%&&&&%&#@&&$&&&&%##&#%#%&&&&&&&&&&&**&*&",
"X@@$%$$#$$&&&&&&&#&@@&*#&%&&@&*@@&&&&&&&&###@###$&&&&&&&**&&&&-&",
"X@@@@%&%&&&&&&&$&&&&#*#%&%&@$&&++&&&&&=&&##&###%@$%%%&&&*&**&#&&",
"X@#@@@$$#&$&&&@&&&*&**&*&&@%&&&++&$&&&&=&#%###%&&&&&&&&&&****&##",
"X%$##$$&#$&$$&@&#&&#&#**&&&%@&&++&&$&&&&&%##%%%&&&&%%&%%%&*&&**%",
"+&@@#&#&&$&#%%&%#**&&***&&*&##&@@%%&&&%###%&%*&%**###**#&**&****",
"+#%##&##&%%%%&&&*******=&=&&&&&+@%%%&&&#&%%%#&&*####*#*#***&&**&",
"#****&##$&&&*&&&*#*****====***&@@*%&&*&&&&&&%*&%*##*###****&***&",
"#-*-*=*&&&&&&&&&&*&****===-=&=-&#*%%**&**&*&***&*####**#%&&&***#",
"%-***##*&&**=-*&*===*=-=====-=*##*&%*******&**&%##*#**#*&#&&***#",
"@-***&&&&***=-=**-=--;-=-===---#%***%**=*&%*************&#&&#**#",
"O*%&&**==**&&---===---=====&***##=*&&==*******&**#***-****&&***#",
"O*#&&*&@&*------=--***==&&&&&&&@%-=*=-*****&%*%&********&**&#**#",
"O**&%%##&;------==-=%&&%$$&&&&&#&&&>&&:&&-&&-&&&****&&&&*#&###&#",
"O&&%##&&%$=;---=*%&&&&%&&&&&&&&@&::&:&&&-&-&&&&&*#***&&**&***##O",
"X*&@@+++$&-;%==%%%%%&&&%&$&$&&&X&:>&&&&&&&&&&&&&***#*#&&&***&###",
".%#@###&&&&&&%%%%%%%$$&%&$&&&#@o&&&&&>&&&;-&-&&&&&****#*&&*###&#",
" @@##%@#&&-&-&&&&&&%$$%%&&&&&%$o&&&:&&::;;&&&&&%&#*&&*#-**##&**#",
" $#+@#%#&&:;&&&-&&&%$&&&@&&@%#$@&&;&:&&&&&;&&&&&&***#&***&***&*&",
"X&%&&&&&&&--;;-&-&%%---&&&&&#@&@&>&&&&&&&&&&&&&&#*&&***-*#*****#",
"X&$&&&&*&&&&&--;&-%&%&%-=&&&&#$+&&&;&:&&;&;&%&%%&**&&***;**;****",
"X&&&%&&&&&&&&-&&&$$$&;&&&&&&&&&o&&&;&&&&=**&&&&%*&#&****;*--**;*",
"X&$&&%%&&&&=&-&$&$$$&;;&&&&&&&&$&&&;&:&:=*&&&=&%#***#***;;;;*-**",
"X@@&&$%&&&&&&&&&$$$%&&&&&&&&$@$$&&&&&&&&=**&&&&&&&##***;;;;;--;*",
"X$&@@$$$$$&&&&&&%%&&&&&&&&$$@$$$&&&&:>&&=**&&&%&&##**-;;;*;;:::*",
"+&%$@$%$$$$$$&&&&&&&$&-&&&$$$o$o$;&&&>&:***&&####&&**;;;;;;;;;:-",
"o&$$&&$$$$$$$&&&&&&&&&&%&&$$o$$$$&&&&&&&***%&######&*****;;;;*;-",
"o&&&$$%$$$$&&&&&&&&%&&$$$$$$$$$o$&&&;&:&***&&#&###&**;;>::;;;;;-",
"o$$$@@@oXoo@o$$$$%$$$$$o$$.$oo$.$$$$&&&&#####@OOO#O##**********#",
"o$$$$$=$=====$$$&&&&$$$$$$$$$$$.$$&&&&&&$$$&&&&&-&----&&&-&&&&&&",
"$=$===--;--;--::;-====-=%&$$$$$$&&&,:&&&-=--;-;;;:>>>:>>>>::>-:;",
"o&$====-----==--;====&$=&%$$$$$$$;&&:::&-==---;-::>>>:::>:;-;&;&",
"$&$====--:::--;;--=====&=&&=%$$$$&&,&&&:--------:>>,:::>>>;;:;;;",
"$====-==-:-:;;-----=--==&&$&&$$$$;&&:&&>-------:;::>>>>>:::;;:;;",
"$$=======---;-=-=;--;-=======$$$&&;:&:&:--=---;-:;>>>>,>>;::;&,&",
"$-=$=-===---;;---;-;;---=-===&$$&&&&&&:&----;;::;::>>>>>>>:::;:&",
"$-------=-;--;;---=----=-=&==&$$&>;:>:&:-=--;;:-;;::>::::::;;:,&",
"$--=--=-------;-------==-======$&:&:--&--;---:-:;;::>::::::&>&>&",
"$-=--------=--;------=-==----==$&&&&-------;-:-:;:;::;::::::::>:",
"$----===--------=--==-=-=---==-&&;>&&;------:---;;;:;::;&:&:::>&",
"$=======--:::----====-==----=--&$>&:-&----;---;-;&::>&:&:;:&:>>&",
"$====-=----------====-=---==-=-=&&&;&&&::;-;----;-;;&::::::>&;:&",
"$==&=====--------==&==&=====---%&;>&;:;&--;-----&:;;:&&>&&:&:;>&",
"$-===-==-==----=====&=&&&=---=;%$;;:-;;;---;;&--&;;;:::&:;&;:&&&",
"$-=-----=-===-=-=-=&&==&==-=-=;%&&&>-;;;--&--;--;&-;>>&;>&::&;>&",
"$;=--------==-=--===%--%-=--=--$%-=-;;-*==-*----;--;;-&;--:%%;;%",
"&:=;-----=--=-==%==%%--%==-=---$#-*-----=----*-:-;;-:&:-&-:%;%:%",
"$;=---;-==-===-=====-%%-=-:%-;;=#-*--;;-;-------;-;-;;;;;;%-%-:%",
"$=;---;-==-====&=%=-%--%=--;--;%%---;--;-=-------;;-;;&--%;&-%:%",
"$-------===========%***&$%-;--;%%--=---*-**------;-;---&-%--%%;%",
"$-----;;&&=========*%&*&=--;--;%#-==-*--**;---:-;-;;;-&;=-%-;-;%",
"$=-:----&&==&==&=;;=*=*&=-----;=#===--=-*--------:----&&%%%%%--%",
"&-------&========;;=*%*=----;-;%#;==*=-**=*-----&:&;&--&=%%-;;:%",
"%-------========-;-*=**&*=--:;;&#=====-=--*-*------===**-=*==--%",
"%-------====&=&=--*=*==##-:-;;;##=-==;==*--*-***---*=--*%=***==%",
"%-=--=--&&&&====********#;---;;##====--***-**---*---=--====***=%",
"%-------=&&&&&==**&*****=----::&#*==*==**-****---*====---=-=***%",
"#--=----==%$$&&&****#****=--;-:=#=**%--***---*-----***-=--=-*&*&",
"#--==--:=%=$$$&&***&**#**===---*+***&==***-**-***-*-*=-=--=-*&=%",
"#*=-;;>,-=$$$$$&%**&%%#==;=--;:*#*-&*---**--*-----*--==-;---==-&",
".%%#%%%%$$$$$$.$O#@##O#####&#**+O#*++#*%#######&####*##&%&*&##%%"
};
