/* XPM */
static char *_c29e6605eb44836f89f9d5eb61bffe4[] = {
/* columns rows colors chars-per-pixel */
"64 64 170 2 ",
"   c #0C5563",
".  c #075C63",
"X  c #0C5C66",
"o  c #0E5D6A",
"O  c #115563",
"+  c #125B66",
"@  c #185A66",
"#  c #12576A",
"$  c #135D6B",
"%  c #1A5D6C",
"&  c #125F71",
"*  c #1A5F72",
"=  c #0D6166",
"-  c #07666A",
";  c #0D636B",
":  c #0C686E",
">  c #126067",
",  c #14636D",
"<  c #1A636E",
"1  c #13696F",
"2  c #196A6E",
"3  c #0F6572",
"4  c #0E6B71",
"5  c #156471",
"6  c #1B6573",
"7  c #156B73",
"8  c #1B6B74",
"9  c #1B6678",
"0  c #166D79",
"q  c #1C6D79",
"w  c #0E7576",
"e  c #157276",
"r  c #1B7176",
"t  c #157379",
"y  c #1C737B",
"u  c #177A7D",
"i  c #1D7A7E",
"p  c #21606F",
"a  c #226574",
"s  c #226B76",
"d  c #226679",
"f  c #236C7B",
"g  c #2A6E7C",
"h  c #207177",
"j  c #23737C",
"k  c #29727D",
"l  c #22797E",
"z  c #28787F",
"x  c #1E7382",
"c  c #1C7C82",
"v  c #246F81",
"b  c #2E6F81",
"n  c #247581",
"m  c #2A7582",
"M  c #247C83",
"N  c #2B7B84",
"B  c #2C7588",
"V  c #267E88",
"C  c #2C7D89",
"Z  c #307386",
"A  c #327A86",
"S  c #327E8B",
"D  c #397D8A",
"F  c #1F8184",
"G  c #1D8989",
"H  c #248185",
"J  c #2A8186",
"K  c #26838A",
"L  c #2C838B",
"P  c #25898B",
"I  c #2C898D",
"U  c #318087",
"Y  c #32848D",
"T  c #39848E",
"R  c #328A8E",
"E  c #3A8A8F",
"W  c #29908F",
"Q  c #2E8690",
"!  c #268D91",
"~  c #2D8B91",
"^  c #2E8F98",
"/  c #348591",
"(  c #3A8693",
")  c #348C93",
"_  c #3A8B94",
"`  c #368E98",
"'  c #3C8E99",
"]  c #259493",
"[  c #2D9195",
"{  c #2E9398",
"}  c #2E9C99",
"|  c #349295",
" . c #3A9296",
".. c #35949A",
"X. c #3C949B",
"o. c #36999D",
"O. c #3C9A9D",
"+. c #39A09F",
"@. c #3D97A1",
"#. c #3D9BA1",
"$. c #36A1A2",
"%. c #3DA2A4",
"&. c #3AA8A7",
"*. c #3DA6A9",
"=. c #3CA8AA",
"-. c #418693",
";. c #418893",
":. c #428E9A",
">. c #42949C",
",. c #4A939C",
"<. c #429A9E",
"1. c #49989D",
"2. c #4497A1",
"3. c #4C96A3",
"4. c #439CA3",
"5. c #4A9BA3",
"6. c #4C9EAA",
"7. c #509EA9",
"8. c #43A2A6",
"9. c #4AA1A6",
"0. c #44A8A7",
"q. c #45A4AA",
"w. c #4CA4AB",
"e. c #45ABAD",
"r. c #4CAAAD",
"t. c #52A5AD",
"y. c #59A6AF",
"u. c #51AAAE",
"i. c #58ABAF",
"p. c #40B3AE",
"a. c #46AEB1",
"s. c #4DACB1",
"d. c #53A6B0",
"f. c #53ACB2",
"g. c #5AACB4",
"h. c #4DB3B4",
"j. c #4EB8B6",
"k. c #4EB4B9",
"l. c #53B2B4",
"z. c #5BB2B6",
"x. c #51B8B7",
"c. c #54B4BA",
"v. c #5CB5BA",
"b. c #55BABA",
"n. c #5BBABD",
"m. c #60AEBA",
"M. c #62B6BD",
"N. c #64B9BC",
"B. c #68B9BD",
"V. c #53C1BE",
"C. c #5DBDC1",
"Z. c #63B7C1",
"A. c #63BBC1",
"S. c #69BDC3",
"D. c #6DBDC8",
"F. c #5DC1C1",
"G. c #66C1C4",
"H. c #69C1C6",
"J. c #67C0C8",
"K. c #6CC4CA",
"L. c #6BC8CD",
"P. c #71C4CC",
"I. c #72CACE",
"U. c #73CBD1",
"Y. c #78CDD0",
"T. c #68D9D7",
"R. c #75D0D5",
"E. c #79D2D6",
"W. c #77D6DA",
"Q. c #75D9DA",
/* pixels */
"+ 8 6 8 g.V 2 y I 2 r r.R w G T.p.V.} I z >.h X.- ! a.#.c #.O.y N z l h B 8 o V C & 5 v 9 y c =.] } c M * d g * 9 Q S. .= N.l > ",
"j < % 8 8 <.) I y  .Y 1 s.{ 8.j.j.j.v.~ E j 0 K t q.s.k.4.c.I 0 h U _ R N 9 9 6 / n & q 0 V #.$.p.$.c n # b 9 % , 1 y G.P.Y.R h ",
"q j s < + N R o.L Y ) J 7 L Y y H I 4.n.| y 1 Y 2.L 0 r.u.>._ h s / h , 8 9 v S V ( ; y y 4.[ ! [ #.2.9 % d d f 8 : ; R I.z.J 1 ",
"0 8 k s < / r.| 1 = r >.Y U m + l l 7 8.w.y : _ / q j 0 l J j s , U J . / :.j C ` V 0 3 0 ` a.o.o./ V < d * s f C j r H <.I I e ",
"0 8 q 9 q f.K 0 1   + A Y f s f A Q M w ^ %.` 9.0 9 = 7 h f 8 > $ 1 Q l 4./ m j q ` I 4 y w.c y M ' B   * d a B >. .)  .R 1 M W ",
"x 7 8 9 t.o.t ..<.8 $ % < & f A _ O.c I ! K u q.4.Q / ( h h s 2 h Y O.X.I 6.' C V t ~ c e r.6 y x n v # # 6 5 V N Y  .X.J 1 ` | ",
"X 7 _ @.4.c.P K #.>., O     6 / O.H 4.M V Q c X.w.Q ) l 8 h 2 A _ O.K t M C ( Y I ~ M M r <.< h 0 v 9 B v v & 7 L U X 8 n n _ x ",
"C t.C 4 V c o.~ M 4./ 6 O d q M 4.o...` A 9 X l R ~ l 5 < s s 8 Y  .t t C V 7 C A.q.c c , 5.h 8 0 x n v f 5 N 7 ) L / C x V B n ",
"* & X o y M e o.[ c 2.2.( v + Y s.+._ A + $ $ m >.) _ z > < k 2 0 O.Y y 7 S 2 ; 8.| O.M > 1.( , & x 9 & 5 o B K 5.9.X._ q 5 x x ",
"5 * 5 % 9 9 M e #.[ K N 9 , 9 ) H i N 6 @ O % Z :._ J ) k 2 p 2 < h 1.S 6 h N 7 K I R O.1.y.5.; & S S v 5 5 ; #.L.<.9._ q m 0 0 ",
"5 9 d 6 5 q 9 j y Q n Y M 6 Q 0 y i | 2     * s A T Y N R A > s s s 7.T A 8 M M u ) l l :.1.f.L / 9 B 6 9 q m Z.v.c ) | V x 0 0 ",
"v 9 * 6 9 + 9 6 n q < , d.f.o.K : y <.l o X 9 $ & m N J <.N U T A ;.s < f h A j e u Y 0 X < q.f.` & & * # 6 7 5 R | t ~ ^ Q x 3 ",
"9 f d 9 d v 8 , 9   a ( A y r.y F r ~ R M , 0 5 + 7 V C Y Y >.z k s , 8 f f N l r 2 R j , ; j q.Q 7 # * d # % 7 ; M I 0 V w./ 3 ",
"# v B S C C 0 O.J N _ h + 5 K 8.i O.O.i 9.4.r n q , M m E z 9 s + < h N Y l L l j I 6.) N 7 ; ) 0 m 6 % d d 7 x V o.V V C ` / & ",
"d d f n C ~ 4.| [ %.K 1 a a , N ) <.<._ 4.t./ n 8 M C Y k < k a < h Y ..I l y 1.O.Y X.U 9 9 l V K Q & & * Z ( X.L ^ f.4.Y q v B ",
"% 9 n V x c %.j.&.] i l s a 6 + 1 X.r r , R <.0 0 6.j A < p p s k h 4.%.*.c ) R 9 > j B f 6 , 9 K ) n % 6 9 D & ; ) ) X & $ 6 * ",
"5 K M 0 i e.{ { C...V V B s & + m N < r 5 y l.v.u.u.i.z h @ @ p a f K #.! #.X.8 $ $ A 6 9 v a s m / S o 9 z l S , u.4.L / 9 9 < ",
"4.w.o.M e.%.w i o.4.X.C j 9 , 8 U r , ; j 0 = R I.i.9.i.U h O @ a d x #.! P 4.Y @ * A f < < 6 , n K m m :.( S 9.V r...M y f 9 B ",
">.H.A.%.%.r.e.| c M >.~ 8 + q 6.K | I J y ; X X J G.R 9.i.U z < @ % 5 ! q.w M Z.d f 6 Y _ w.` Q L l 7 v Y < k 9.) | s.K Q f f 9 ",
"8 <.F.b.W I | e.t 5 ; C M q Y m 9.e.o.R , 8 6 8 2 l G.0.<.z.h > 6 * ( K.q.^ e L v.6 7 d.K 7 t Q Y y 0 0 A 8 2 <.u.: #.M C S v d ",
"2 6 o.k.n.e.s.~ Q 7 0 1 ; N < s _ l.s.y 0 9 f g 2 > 2 i.N R 4.| 5.t._ 0 7 z N z v.t.e #.c 7 ; 1 f Y : 7 Y r 1 <.e.M H 7 8 m Y f ",
"j l ) s.q.l.|  .O.Y 0 6 n j j < _ O.A.#.M Y k @ > =  .J r r J u.X.o.U l 8 9 U _ >.f.8.O.I I 6 r , f Y ) <.r.u.8.w. .| 6 7 v n V ",
"y M o.r...c q 9 , 5.) M y M , T @ X L S.` M < > > U 1.. 1 J _ J e ) ) N y s 1 6 r r H 4.f.5.U l j 8 6 N s.e.+.h.<.| J J C K y M ",
"#.| c K K H ,   $ k u.| c 1 Y S > + j M z.Y 1 X U I.l J ) L 7 j R H j N E s , 5 r V z L >.M _ L n j 2 u P 0.w 0.I J 6 1 0 Q ..` ",
"| c c i q.0 < a a a y u.) R v.M h < 2 > y 4.K K 9.O.n.+.P J z r y L y < T Y A j 2 h r j >.r I ) R R 2 2 i [ +.l.t P 4.| 8.| ) ~ ",
"x [ ~ #.s.5 % d g < 7 y V.L.R r k z 8 > 7 2 7 ) : i F.l.9.) X.U l s f h 8 _ :.z j k N _ 5.r 2 y R l | l F l.O.b.{ R H I ..c y 0 ",
"7 0 P o.Z.2.9 f N 2 1 l ~ J j , 8 z < < 9 0 K K : r L u.N.e.R 8 s A z r 6 M _ z g a a z 2 , e 2 z 9.J W u.n.O.b.W.l.R H V K c t ",
"q 7 4 c L t._ 9 h M r ) e 9.2 2 8 2 A A , 0 Q 2 , > > 2 z.>.M j , 9 j l : j s z 3.U 2 k 9 2 < _ 1.E N.9. . .R i <.%.s. .M P [ F ",
"n n 0 0 q V t.f.y y K  .I 9.X > + a a < q 9 6 | > 2 p a y.2 K H ) R F 1 l z r , U 1. .2 2 h s 1.2 2 z 9.u.R 1 1  .K Q 4.@.c { ! ",
"..C x x 6 Y Y ; 2.i M H.f.<.z.E + + & + h 6 ( M.>.+ s a A z t J X. .E R l z 2 , E E J <.h h 2 E 2 @ h h  .1.1 y H M x C @.L c o.",
"s.Q V V 6 C >.& + 2.f.l. .e H 8.J 1   X g j ' ) N.R X s k , X.| 2 T N.9.R R 2 h U <.J F <. .J 1.h 2 2 2 s E A 8 q V 0 y ~ I c ^ ",
"^ r.) x 0 z A -., X 6 9.1 H - I 4.Y 6 j d D Y q R G.9.s 8 N 4.= + + 7 z.9.N h 1 R F i.W 2 F R z.i.9.E h 8 < 5.8 M X | x u #.V @.",
"z l z y V 5 o A C 5 < q 7 x V q.[ O.x V $ d g < 0 H K.O.= G.y 1 > 8 , 6 g.U 1 z H 2 4 l.W e K Q.a.F...) Y :.h X.; | l.%.y 4.<.h ",
"k U E E j 8 5 9 ) x o 9 0 V #.$.a.#.c n + g 6 % > 2 r N.L.E.Y y r < , 6 2 1.R R l O.Q : d.X.%.h.b.j.n.Q R r 7 J e %.e.k.8.l.Y s ",
"2 U s > r 7 B A V Q X n 0 q.[ P [ *.4.7 % 9 d f 8 < = R R.l.Q 6 y j s < , f R O.K K _ C 7 ~ Y y K P o.n.[ 0 5 ) 4.Q r i.f.O.) j ",
"> z S . _ ' j C ` V 0 7 0 ..r.#.o.I m 6 5 6 d f D h y J <.J ) y 8 8 v s , ) f.| 7 X f :.S S B , i F u #.r.t 4 ) ~ 5 0 7 z J y 2 ",
"2 r L z 2.( v j 0 ..Q 7 y w.i i M _ C # 5 9 9 m >.>.Y  .~ 7 N ( 7 q 9 0 y t.~ 4 , & @ A T f f 0 J I c i [ %.[ q.0 8 , q j h 0 , ",
"r U O.>.Q w.:.C V t L n 0 r.7 0 y n v   5 % 7 B N Y X. .J 4 _ ' n 5 0 0 f.o.t o.2.q $ @ % % j M | { H H P I M 6.2.Y ( ( 8 8 8 8 ",
"R >.I r C C ( C K L K c 0 <.1 q 7 v v x B v + 8 L Y ; 8 y n X.y X 9 @.@.@.C.~ V #.' % + # O 6 R <.K O.K V Q y ` d./ Y j f j 8 A ",
"I | 7 r C C 5 L D.8.V M 6 3.j 8 6 x v v 7 9 S 9 / Q Y J n m V x S 6.C 3 c c ..! K 4.( 6   a 9 C 4.| ....m 5 , n / / c 6 , 8 s a ",
"7 >.Y r 8 D 8 o 4.) o.C ; >.Y 9 6 9 9 & & 5 B C 6.4.` X.7 5 x y 9 & # & x C 0 @.[ c #.2./ v $ Y f.#._ C + + X n 2.~ R n : 5 h s ",
"2 8 6.Y 8 h m 0 ~ R ) @.>.g.t., 6 S S B 5 & & 2.U.4.t.I x y 0 0 x & & & d 6 V 0 o.! ~ V 9 7 6 _ H c M 8 &   < N ' | L / j 9 < 6 ",
"< g 7.Y A 6 N l y R l i ) X.y./ / 9 v 9 9 0 V Z.f.K R | I n 7 9 9 9 v * * d q n 0 Q x Q m 5 ) 0 0 l X.,     , f N Y Q V R N , s ",
"D ;.s , h k A l y M K r , 8 4.f.' & * * # 7 5 4 Y ..y ~ ` ~ 9 6 x * d * & % 6 7 n j 6 5 d.f.X.n : y 4.j X ; 9 + & n V L >.N D T ",
"g s 8 8 6 l z y r 7 ) y & & M 2.L 1 + < 6 % o 7 9 y Q t V 6.( 9 & v d d v 9 0 & 9   6 D V n f.M M y ) ) z , 8 5 X 8 N S U / >.k ",
"@ < y N Y j H l j R w.R v 7 X | 0 M 9 $ d 6 9 f N X.M M V ` ( * & v v B S C x @.N S ( j o 5 L 4.l O.X.y 5.4.j M 0 > z N / A 8 a ",
"a s ~ ) R H y 4.>.R _ z s d f C C / & & % Z -.:.C X.c.@./ v v v d v v v V ! #.^ [ #.Q 1 5 d + C | %.1.| 5.t./ z 8 z A Y h < k s ",
"h j O.8.q.i ) ) 9 , h N k a , 6 Y / n < & d S < ; ~ Q ; & o & 9 # d v S x c $.k.=.W y n f d d ; 1  .y 0 1 / >.8 8 w.l z < 2 < a ",
"s f J 8.K O. .7 , % z s 6 g f 8 m ( L , 9 j M L 6 t.q.L ( 9 7 5 > U J r u 0.{ [ C.o.M N m v % & A z 7 r 1 M f.l.w.g.t.N s @ @ a ",
"p d 0 O.[ M 8.Y , < z h $ 8 6 $ v L v n 2.) N t.M r.` N q q 9 f w.w.| J 9.&.w c ..4.o.L y 5 * 5 V 8 , ; y 6 = I I.q.t.i.z k O p ",
"% X 8 J w.w i N.2 s 8 ( :.7.:.Y C M 8 h ( > j t.| | w.L L j d 6 1.H.V.<.&.0.a.[ c V 2.R 7 ; 0 9.H ) I Y j = ; > C H.J r.t.U h > ",
"< < / K.9.| 0 L N., 8 7.U 0 y Q Q q 8 8 A 9 0 <.w.4 4.M C / m 6 8 1.n.V.P P { e.c ; 1 N V 0 Y M q.r.| R , , 8 7 1 K S.9.1.z.h > ",
"2.d.` 9 2 c N l l.t.y q.n 0 = 4 l J 1 0 R h 2  .t.c c r 0 z Y v 5 8 O.l.v.e.r.Q L 0 7 ; : z s d X.l.r.j 0 8 8 r > . r i.l R 1.E ",
"2.X.( n 8 q U >.5.u.4...P Q 0 0 , h Y ) <.0.u.0.w.o. .1 : n m m n m ) r.r.l._ X.' Q 0 : l h k < ( X.S.1.l Y j > > = >.U h r J r.",
"0 ( ( M j 9 6 < 9 r I 4.c.4.Y j h 2 1 J u.h.+.i.4.R J K C H 0 M x M | r.[ l 0 f 5 4.| H r H + _ & X S D._ j 7 , = Y :.. 2 J E J ",
"Y C y V / y < < f N n K #.M _ N z h r l l 0.w 0.I H e : 0 Y >.` @...M H I l , O & z e.| i 2 Y N > & 9 N m.Y 1 = L P.L J E J r y ",
"k N y 2 K Q A s s s h j >.0 Y R Y R 2 1 l  .<.i.w P %.[ #...Q Q ` V u u 8.7 5 6 a s y u.I I n.M 0 7 9 X l 4.N K 9.O.A.4.R J l y ",
"g k r e r R  .A g g A ;.1.l 7 y I J R J l r.+.b.[ P P I ..V x 0 V ^ ~ O.s.4 5 g b < , l G.H.I y j n 0 ; > h 7  .: M n.l.<.) | F ",
"s k N y 2 M _ f g s a k < , 2 1 J 5.J I l.G.O.F.Q.l.[ F K K c x 5 5 V o.v.4.6 d B 6 2 l R I h , 0 N 5 1 q 8 A N , r J i.S.9.| r ",
"2 h y i 6 y h z 1.T a s h , 2 _ 1.L N.i.| R R i <.%.r...x P ^ V 0 0 0 M Y i.( f h z r ) r 9.2 < 6 8 n A , q ( 8 < > < 7 v.o.l y ",
"R E z e l j h , J  .>.r 1 r h >.h 2 z i.u.P e -  .J I 9.@.c ^ ! y x e e 0 z w.f.t y K  .~ <.+ * $ < 6 , 8 q 6 _ + s < s y.7 M J ",
") >.) E z z < 2 E R J <.2 y 8 E a > h h  .9.= y z z j J @.Q c $...K y j 2 / C ; #.i P n.u.8.m.Y % % $ o n 8 Y M.:.< < < S z y Y ",
"h U z.9.I E 8 r R <.H F +. .N 1.< s 2 2 h I N h r N r y ` V V ^ k.K C V 7 U :.% , 1.i.l.<.1 K 5.S *   + y q 1.) N. .. 0 N X >.E ",
"= . e r.9.J 2 2 U F 0.W e l R B.i.5.;.k s 2 1.h k >  .M x *.V ^ ^ 8.) y 8 n B ( < + 2 1.> H : ~ 3.D q j q K M e J A.w.j 8 N 5.> "
};
